HIERARCHY
ROOT mixamorig:Hips
{
	OFFSET -0.000008 104.274872 1.554316
	CHANNELS 6 Xposition Yposition Zposition Xrotation Yrotation Zrotation
	JOINT mixamorig:Spine
	{
		OFFSET -0.000005 10.181595 0.131519
		CHANNELS 6 Xposition Yposition Zposition Xrotation Yrotation Zrotation
		JOINT mixamorig:Spine1
		{
			OFFSET -0.000000 9.893959 -1.470707
			CHANNELS 6 Xposition Yposition Zposition Xrotation Yrotation Zrotation
			JOINT mixamorig:Spine2
			{
				OFFSET -0.000000 9.220757 -1.370641
				CHANNELS 6 Xposition Yposition Zposition Xrotation Yrotation Zrotation
				JOINT mixamorig:Neck
				{
					OFFSET 0.000001 16.740417 -2.049036
					CHANNELS 6 Xposition Yposition Zposition Xrotation Yrotation Zrotation
					JOINT mixamorig:Head
					{
						OFFSET 0.000000 9.617874 1.685006
						CHANNELS 6 Xposition Yposition Zposition Xrotation Yrotation Zrotation
						JOINT mixamorig:HeadTop_End
						{
							OFFSET 0.000002 22.037354 7.501101
							CHANNELS 6 Xposition Yposition Zposition Xrotation Yrotation Zrotation
							End Site
							{
								OFFSET 0.000168 2310.654297 -282.823242
							}
						}
					}
				}
				JOINT mixamorig:RightShoulder
				{
					OFFSET -4.569970 11.014908 -2.160885
					CHANNELS 6 Xposition Yposition Zposition Xrotation Yrotation Zrotation
					JOINT mixamorig:RightArm
					{
						OFFSET -10.592851 -0.524811 -2.232101
						CHANNELS 6 Xposition Yposition Zposition Xrotation Yrotation Zrotation
						JOINT mixamorig:RightForeArm
						{
							OFFSET -27.841511 0.000031 -0.000004
							CHANNELS 6 Xposition Yposition Zposition Xrotation Yrotation Zrotation
							JOINT mixamorig:RightHand
							{
								OFFSET -28.328831 -0.000015 0.000015
								CHANNELS 6 Xposition Yposition Zposition Xrotation Yrotation Zrotation
								JOINT mixamorig:RightHandThumb1
								{
									OFFSET -2.464806 -1.573990 2.681852
									CHANNELS 6 Xposition Yposition Zposition Xrotation Yrotation Zrotation
									JOINT mixamorig:RightHandThumb2
									{
										OFFSET -3.215179 -1.872803 1.924282
										CHANNELS 6 Xposition Yposition Zposition Xrotation Yrotation Zrotation
										JOINT mixamorig:RightHandThumb3
										{
											OFFSET -2.654831 -1.527969 1.512609
											CHANNELS 6 Xposition Yposition Zposition Xrotation Yrotation Zrotation
											JOINT mixamorig:RightHandThumb4
											{
												OFFSET -2.018814 -1.152008 1.108052
												CHANNELS 6 Xposition Yposition Zposition Xrotation Yrotation Zrotation
												End Site
												{
													OFFSET -188.809540 -114.533607 132.431396
												}
											}
										}
									}
								}
								JOINT mixamorig:RightHandIndex1
								{
									OFFSET -9.108284 -0.517868 2.259835
									CHANNELS 6 Xposition Yposition Zposition Xrotation Yrotation Zrotation
									JOINT mixamorig:RightHandIndex2
									{
										OFFSET -3.699989 0.000000 0.001215
										CHANNELS 6 Xposition Yposition Zposition Xrotation Yrotation Zrotation
										JOINT mixamorig:RightHandIndex3
										{
											OFFSET -2.850006 0.000031 -0.000522
											CHANNELS 6 Xposition Yposition Zposition Xrotation Yrotation Zrotation
											JOINT mixamorig:RightHandIndex4
											{
												OFFSET -2.772186 -0.000015 -0.000020
												CHANNELS 6 Xposition Yposition Zposition Xrotation Yrotation Zrotation
												End Site
												{
													OFFSET -277.218445 0.000000 -0.050231
												}
											}
										}
									}
								}
								JOINT mixamorig:RightHandMiddle1
								{
									OFFSET -9.532516 -0.000031 -0.000023
									CHANNELS 6 Xposition Yposition Zposition Xrotation Yrotation Zrotation
									JOINT mixamorig:RightHandMiddle2
									{
										OFFSET -3.700005 -0.000015 0.003713
										CHANNELS 6 Xposition Yposition Zposition Xrotation Yrotation Zrotation
										JOINT mixamorig:RightHandMiddle3
										{
											OFFSET -2.949974 0.000015 -0.002054
											CHANNELS 6 Xposition Yposition Zposition Xrotation Yrotation Zrotation
											JOINT mixamorig:RightHandMiddle4
											{
												OFFSET -2.946640 0.000000 -0.000156
												CHANNELS 6 Xposition Yposition Zposition Xrotation Yrotation Zrotation
												End Site
												{
													OFFSET -294.664337 0.000000 -0.113670
												}
											}
										}
									}
								}
								JOINT mixamorig:RightHandRing1
								{
									OFFSET -9.103600 -0.043076 -1.865134
									CHANNELS 6 Xposition Yposition Zposition Xrotation Yrotation Zrotation
									JOINT mixamorig:RightHandRing2
									{
										OFFSET -3.379288 0.000000 -0.001055
										CHANNELS 6 Xposition Yposition Zposition Xrotation Yrotation Zrotation
										JOINT mixamorig:RightHandRing3
										{
											OFFSET -2.889687 -0.000015 0.000379
											CHANNELS 6 Xposition Yposition Zposition Xrotation Yrotation Zrotation
											JOINT mixamorig:RightHandRing4
											{
												OFFSET -2.638809 -0.000015 0.000941
												CHANNELS 6 Xposition Yposition Zposition Xrotation Yrotation Zrotation
												End Site
												{
													OFFSET -263.880371 0.000000 0.516020
												}
											}
										}
									}
								}
								JOINT mixamorig:RightHandPinky1
								{
									OFFSET -8.076683 -0.486710 -3.806280
									CHANNELS 6 Xposition Yposition Zposition Xrotation Yrotation Zrotation
									JOINT mixamorig:RightHandPinky2
									{
										OFFSET -3.600014 -0.000015 -0.003747
										CHANNELS 6 Xposition Yposition Zposition Xrotation Yrotation Zrotation
										JOINT mixamorig:RightHandPinky3
										{
											OFFSET -2.099983 0.000000 -0.005739
											CHANNELS 6 Xposition Yposition Zposition Xrotation Yrotation Zrotation
											JOINT mixamorig:RightHandPinky4
											{
												OFFSET -2.115768 -0.000031 -0.003680
												CHANNELS 6 Xposition Yposition Zposition Xrotation Yrotation Zrotation
												End Site
												{
													OFFSET -211.577087 0.000000 -0.350686
												}
											}
										}
									}
								}
							}
						}
					}
				}
				JOINT mixamorig:LeftShoulder
				{
					OFFSET 4.570447 11.014725 -2.160855
					CHANNELS 6 Xposition Yposition Zposition Xrotation Yrotation Zrotation
					JOINT mixamorig:LeftArm
					{
						OFFSET 10.592371 -0.524597 -2.232119
						CHANNELS 6 Xposition Yposition Zposition Xrotation Yrotation Zrotation
						JOINT mixamorig:LeftForeArm
						{
							OFFSET 27.841532 -0.000031 0.000026
							CHANNELS 6 Xposition Yposition Zposition Xrotation Yrotation Zrotation
							JOINT mixamorig:LeftHand
							{
								OFFSET 28.328846 -0.000061 0.000022
								CHANNELS 6 Xposition Yposition Zposition Xrotation Yrotation Zrotation
								JOINT mixamorig:LeftHandThumb1
								{
									OFFSET 2.466141 -1.576172 2.681732
									CHANNELS 6 Xposition Yposition Zposition Xrotation Yrotation Zrotation
									JOINT mixamorig:LeftHandThumb2
									{
										OFFSET 3.217812 -1.872070 1.916482
										CHANNELS 6 Xposition Yposition Zposition Xrotation Yrotation Zrotation
										JOINT mixamorig:LeftHandThumb3
										{
											OFFSET 2.656029 -1.528778 1.514513
											CHANNELS 6 Xposition Yposition Zposition Xrotation Yrotation Zrotation
											JOINT mixamorig:LeftHandThumb4
											{
												OFFSET 2.020889 -1.154053 1.115139
												CHANNELS 6 Xposition Yposition Zposition Xrotation Yrotation Zrotation
												End Site
												{
													OFFSET 190.885437 -115.081749 130.048782
												}
											}
										}
									}
								}
								JOINT mixamorig:LeftHandIndex1
								{
									OFFSET 9.109314 -0.518021 2.259871
									CHANNELS 6 Xposition Yposition Zposition Xrotation Yrotation Zrotation
									JOINT mixamorig:LeftHandIndex2
									{
										OFFSET 3.699989 0.000000 -0.000322
										CHANNELS 6 Xposition Yposition Zposition Xrotation Yrotation Zrotation
										JOINT mixamorig:LeftHandIndex3
										{
											OFFSET 2.850006 0.000000 0.000352
											CHANNELS 6 Xposition Yposition Zposition Xrotation Yrotation Zrotation
											JOINT mixamorig:LeftHandIndex4
											{
												OFFSET 2.774864 -0.000031 -0.000027
												CHANNELS 6 Xposition Yposition Zposition Xrotation Yrotation Zrotation
												End Site
												{
													OFFSET 277.486267 0.000000 -0.009857
												}
											}
										}
									}
								}
								JOINT mixamorig:LeftHandMiddle1
								{
									OFFSET 9.533394 0.000061 0.000044
									CHANNELS 6 Xposition Yposition Zposition Xrotation Yrotation Zrotation
									JOINT mixamorig:LeftHandMiddle2
									{
										OFFSET 3.699989 -0.000015 -0.000231
										CHANNELS 6 Xposition Yposition Zposition Xrotation Yrotation Zrotation
										JOINT mixamorig:LeftHandMiddle3
										{
											OFFSET 2.949997 -0.000015 -0.000059
											CHANNELS 6 Xposition Yposition Zposition Xrotation Yrotation Zrotation
											JOINT mixamorig:LeftHandMiddle4
											{
												OFFSET 2.952896 0.000031 0.000063
												CHANNELS 6 Xposition Yposition Zposition Xrotation Yrotation Zrotation
												End Site
												{
													OFFSET 295.289337 0.000000 0.022810
												}
											}
										}
									}
								}
								JOINT mixamorig:LeftHandRing1
								{
									OFFSET 9.104523 -0.042999 -1.865074
									CHANNELS 6 Xposition Yposition Zposition Xrotation Yrotation Zrotation
									JOINT mixamorig:LeftHandRing2
									{
										OFFSET 3.150009 -0.000031 0.000043
										CHANNELS 6 Xposition Yposition Zposition Xrotation Yrotation Zrotation
										JOINT mixamorig:LeftHandRing3
										{
											OFFSET 2.949982 -0.000015 0.000040
											CHANNELS 6 Xposition Yposition Zposition Xrotation Yrotation Zrotation
											JOINT mixamorig:LeftHandRing4
											{
												OFFSET 2.644348 0.000000 0.000057
												CHANNELS 6 Xposition Yposition Zposition Xrotation Yrotation Zrotation
												End Site
												{
													OFFSET 264.434631 0.000000 0.012105
												}
											}
										}
									}
								}
								JOINT mixamorig:LeftHandPinky1
								{
									OFFSET 8.077789 -0.486847 -3.806259
									CHANNELS 6 Xposition Yposition Zposition Xrotation Yrotation Zrotation
									JOINT mixamorig:LeftHandPinky2
									{
										OFFSET 3.599953 0.000031 0.014727
										CHANNELS 6 Xposition Yposition Zposition Xrotation Yrotation Zrotation
										JOINT mixamorig:LeftHandPinky3
										{
											OFFSET 2.100021 0.000015 0.007705
											CHANNELS 6 Xposition Yposition Zposition Xrotation Yrotation Zrotation
											JOINT mixamorig:LeftHandPinky4
											{
												OFFSET 2.125504 0.000031 0.007517
												CHANNELS 6 Xposition Yposition Zposition Xrotation Yrotation Zrotation
												End Site
												{
													OFFSET 212.550781 0.000000 0.625752
												}
											}
										}
									}
								}
							}
						}
					}
				}
			}
		}
	}
	JOINT mixamorig:RightUpLeg
	{
		OFFSET -8.207787 -6.751648 -1.599560
		CHANNELS 6 Xposition Yposition Zposition Xrotation Yrotation Zrotation
		JOINT mixamorig:RightLeg
		{
			OFFSET -0.000002 -44.370117 0.345942
			CHANNELS 6 Xposition Yposition Zposition Xrotation Yrotation Zrotation
			JOINT mixamorig:RightFoot
			{
				OFFSET 0.000003 -44.423679 -3.043532
				CHANNELS 6 Xposition Yposition Zposition Xrotation Yrotation Zrotation
				JOINT mixamorig:RightToeBase
				{
					OFFSET -0.000002 -8.728671 10.710558
					CHANNELS 6 Xposition Yposition Zposition Xrotation Yrotation Zrotation
					JOINT mixamorig:RightToe_End
					{
						OFFSET -0.000001 -0.000679 9.278119
						CHANNELS 6 Xposition Yposition Zposition Xrotation Yrotation Zrotation
						End Site
						{
							OFFSET 0.000000 -0.067690 927.812134
						}
					}
				}
			}
		}
	}
	JOINT mixamorig:LeftUpLeg
	{
		OFFSET 8.207793 -6.751686 -1.599556
		CHANNELS 6 Xposition Yposition Zposition Xrotation Yrotation Zrotation
		JOINT mixamorig:LeftLeg
		{
			OFFSET -0.000004 -44.370014 0.346954
			CHANNELS 6 Xposition Yposition Zposition Xrotation Yrotation Zrotation
			JOINT mixamorig:LeftFoot
			{
				OFFSET -0.000001 -44.423672 -3.044401
				CHANNELS 6 Xposition Yposition Zposition Xrotation Yrotation Zrotation
				JOINT mixamorig:LeftToeBase
				{
					OFFSET -0.000002 -8.728669 10.710558
					CHANNELS 6 Xposition Yposition Zposition Xrotation Yrotation Zrotation
					JOINT mixamorig:LeftToe_End
					{
						OFFSET -0.000003 -0.000679 9.278133
						CHANNELS 6 Xposition Yposition Zposition Xrotation Yrotation Zrotation
						End Site
						{
							OFFSET 0.000000 -0.068021 927.813477
						}
					}
				}
			}
		}
	}
}
MOTION
Frames: 3
Frame Time: 0.033333
0.000006 104.270477 1.554256 0.000010 0.000003 -0.000113 -0.000005 10.181587 0.131522 0.000001 -0.000003 0.000084 -0.000000 9.893967 -1.470711 0.000001 0.000000 -0.000000 -0.000000 9.220802 -1.370642 0.000000 -0.000000 -0.000000 0.000001 16.740433 -2.049030 0.000000 -0.000000 -0.000000 0.000000 9.617859 1.685014 0.000000 0.000000 0.000000 0.000002 22.037384 7.501101 0.000000 -0.000000 0.000000 -4.569968 11.014880 -2.160881 0.000008 0.000001 -0.000038 -10.592787 -0.524845 -2.231754 74.466554 63.701971 -50.546839 -27.841488 -0.000001 0.000568 48.522132 103.257461 -59.299429 -28.328835 0.000020 0.000018 -0.000320 -0.000044 0.000007 -2.464744 -1.574194 2.682031 -67.072096 -373.449090 -19.819807 -3.215188 -1.872950 1.924385 -51.290920 0.627685 -13.861188 -2.654853 -1.528200 1.512763 -54.501607 0.663961 -14.732766 -2.018845 -1.151974 1.108064 0.000001 -0.000002 0.000000 -9.108386 -0.517988 2.260016 -41.221838 23.650596 9.009237 -3.700076 -0.000104 0.001405 -40.144935 23.410735 8.657081 -2.850103 -0.000099 -0.000343 -39.701024 18.705342 6.805464 -2.772178 -0.000001 -0.000019 0.000000 0.000000 0.000003 -9.532583 -0.000172 0.000159 -40.156041 21.884800 8.099608 -3.700080 -0.000144 0.003913 -41.317532 19.842408 7.533094 -2.950076 -0.000141 -0.001881 -42.149893 17.466498 6.774515 -2.946625 0.000006 -0.000157 0.000001 0.000002 0.000003 -9.103698 -0.043182 -1.864959 -38.299504 20.762597 7.275388 -3.379325 -0.000142 -0.000884 -42.633740 14.202482 5.569913 -2.889762 -0.000142 0.000582 -46.758143 11.869335 5.158549 -2.638804 -0.000029 0.000942 0.000002 0.000000 0.000001 -8.076767 -0.486774 -3.806139 -28.533042 25.665310 6.629739 -3.600045 -0.000196 -0.003601 -41.047022 14.110988 5.234352 -2.100023 -0.000153 -0.005570 -46.211441 10.175937 4.286862 -2.115769 -0.000051 -0.003678 -0.000001 0.000001 -0.000003 4.570446 11.014691 -2.160851 -0.000018 0.000010 -0.000021 10.592491 -0.524554 -2.232369 47.487850 -63.086209 30.221026 27.841812 -0.000048 -0.000128 192.660840 -73.087764 197.026314 28.328842 -0.000029 0.000021 0.000021 -0.000087 -0.000001 2.466126 -1.576168 2.681876 -119.307190 59.443123 67.139646 3.217648 -1.872065 1.916528 340.097057 133.629099 -389.397390 2.655714 -1.528485 1.514512 128.537521 -21.804986 -90.217004 2.020899 -1.154072 1.115146 0.000001 -0.000001 -0.000001 9.109176 -0.518040 2.259934 180.114534 -7.399973 181.618241 3.699738 0.000041 -0.000245 181.233510 -4.138087 213.434327 2.849963 -0.000023 0.000409 -0.837856 -177.028395 -31.536124 2.774863 -0.000018 -0.000033 -0.000001 0.000003 0.000003 9.533543 0.000270 0.000029 156.859802 -11.741400 53.293517 3.700007 -0.000029 -0.000217 -5.051285 5.911917 0.261219 2.950022 -0.000034 -0.000021 -18.496144 9.253572 1.509311 2.952868 -0.000014 0.000057 0.000001 0.000001 -0.000001 9.104655 -0.042722 -1.865085 158.031111 -8.912215 43.760909 3.149993 -0.000008 0.000033 341.472630 27.485479 4.567992 2.949973 0.000001 0.000053 -22.988789 19.910099 4.087659 2.644324 0.000029 0.000037 -0.000003 0.000001 -0.000003 8.077786 -0.486479 -3.806258 164.801591 0.471140 -0.007146 3.599953 0.000006 0.014763 -30.918921 38.566585 10.795000 2.099984 -0.000011 0.007702 339.534605 28.027290 4.986641 2.125507 -0.000031 0.007526 -0.000002 -0.000001 -0.000001 -8.207786 -6.751667 -1.599560 -0.077001 -0.000003 0.000080 -0.000002 -44.370110 0.345938 0.153719 -0.000000 -0.000000 0.000000 -44.423679 -3.043532 -0.076700 0.000000 -0.000002 -0.000006 -8.728667 10.710559 -0.000009 -0.000000 -0.000000 -0.000001 -0.000679 9.278123 0.000000 -0.000000 -0.000000 8.207792 -6.751710 -1.599556 -0.074518 -0.000003 0.000081 -0.000002 -44.370014 0.346960 0.148822 0.000002 0.000000 -0.000001 -44.423664 -3.044403 -0.074314 0.000000 -0.000002 -0.000004 -8.728671 10.710558 0.000007 -0.000000 -0.000000 0.000000 -0.000680 9.278137 -0.000000 0.000000 -0.000001 
0.000006 104.270477 1.554256 0.000010 0.000003 -0.000113 -0.000005 10.181587 0.131522 0.000001 -0.000003 0.000084 -0.000000 9.893967 -1.470711 0.000001 0.000000 -0.000000 -0.000000 9.220802 -1.370642 0.000000 -0.000000 -0.000000 0.000001 16.740433 -2.049030 0.000000 -0.000000 -0.000000 0.000000 9.617859 1.685014 0.000000 0.000000 0.000000 0.000002 22.037384 7.501101 0.000000 -0.000000 0.000000 -4.569968 11.014880 -2.160881 0.000008 0.000001 -0.000038 -10.592785 -0.524847 -2.231756 74.469272 64.341864 -51.100832 -27.841492 0.000001 0.000574 48.673202 103.253882 -59.469596 -28.328831 0.000005 0.000017 -0.000322 -0.000045 0.000007 -2.464751 -1.574208 2.682024 -62.809306 -371.903718 -18.086679 -3.215178 -1.872938 1.924405 -47.523855 0.014090 -12.913016 -2.654860 -1.528179 1.512761 -47.871355 3.574637 -12.958957 -2.018850 -1.152004 1.108055 -0.000002 -0.000006 0.000002 -9.108380 -0.517960 2.260001 -32.585115 24.347372 7.217410 -3.700097 -0.000078 0.001407 -34.976244 28.880523 9.277049 -2.850106 -0.000081 -0.000341 -39.179256 23.615811 8.509680 -2.772149 0.000002 -0.000025 -0.000001 -0.000002 -0.000003 -9.532594 -0.000173 0.000124 -32.813779 21.484821 6.403570 -3.700094 -0.000111 0.003879 -34.420448 22.566078 7.066303 -2.950086 -0.000135 -0.001884 -38.791827 21.383512 7.605297 -2.946624 0.000000 -0.000157 -0.000001 -0.000001 -0.000004 -9.103680 -0.043156 -1.864984 -30.473944 20.850507 5.735789 -3.379329 -0.000139 -0.000897 -37.163264 13.487520 4.555894 -2.889773 -0.000136 0.000537 -46.840198 12.657742 5.513019 -2.638801 0.000005 0.000940 -0.000003 0.000001 0.000003 -8.076759 -0.486739 -3.806171 -17.023890 24.958428 3.803957 -3.600054 -0.000177 -0.003616 -34.753881 12.825243 3.970580 -2.100037 -0.000159 -0.005566 -44.953457 11.114237 4.550716 -2.115777 -0.000033 -0.003690 -0.000002 0.000000 -0.000003 4.570446 11.014691 -2.160851 -0.000018 0.000010 -0.000021 10.592497 -0.524550 -2.232371 48.707848 -63.893626 31.524994 27.841805 -0.000051 -0.000128 193.064627 -73.221465 197.523484 28.328840 -0.000029 0.000015 0.000019 -0.000089 -0.000001 2.466076 -1.576196 2.681873 -178.800064 60.716844 128.061198 3.217580 -1.872050 1.916558 326.446351 144.442887 -371.553958 2.655700 -1.528482 1.514539 128.670286 -20.580565 -99.502961 2.020895 -1.154057 1.115151 -0.000003 0.000000 0.000001 9.109410 -0.517974 2.259913 170.133920 -13.850838 109.111814 3.699910 -0.000030 -0.000256 177.645830 -11.561074 157.213688 2.849741 0.000098 0.000456 3.243300 -170.670062 38.260264 2.774876 -0.000024 -0.000020 0.000005 -0.000001 0.000001 9.533507 0.000300 0.000000 134.884884 -16.301640 38.026897 3.700015 0.000039 -0.000361 40.582081 -4.488113 1.659210 2.950017 -0.000036 -0.000029 -11.983641 7.235429 0.760016 2.952871 0.000001 0.000060 0.000001 -0.000001 -0.000002 9.104639 -0.042758 -1.865135 130.688211 -17.939724 37.958124 3.149989 0.000056 -0.000079 384.949926 20.238050 -4.522137 2.949968 -0.000024 0.000038 -27.009256 30.092164 7.386894 2.644324 0.000027 0.000057 -0.000001 -0.000002 0.000003 8.077894 -0.486576 -3.806310 133.602352 -12.876709 30.843061 3.599923 0.000054 0.014628 22.260307 24.199751 -4.844595 2.099986 -0.000011 0.007718 339.130859 28.754386 5.228649 2.125500 -0.000015 0.007524 0.000001 0.000002 0.000001 -8.207786 -6.751667 -1.599560 -0.077001 -0.000003 0.000080 -0.000002 -44.370110 0.345938 0.153719 -0.000000 -0.000000 0.000000 -44.423679 -3.043532 -0.076700 0.000000 -0.000002 -0.000006 -8.728667 10.710559 -0.000009 -0.000000 -0.000000 -0.000001 -0.000679 9.278123 0.000000 -0.000000 -0.000000 8.207792 -6.751710 -1.599556 -0.074518 -0.000003 0.000081 -0.000002 -44.370014 0.346960 0.148822 0.000002 0.000000 -0.000001 -44.423664 -3.044403 -0.074314 0.000000 -0.000002 -0.000004 -8.728671 10.710558 0.000007 -0.000000 -0.000000 0.000000 -0.000680 9.278137 -0.000000 0.000000 -0.000001 
0.000006 104.270477 1.554256 0.000010 0.000003 -0.000113 -0.000005 10.181587 0.131522 0.000001 -0.000003 0.000084 -0.000000 9.893967 -1.470711 0.000001 0.000000 -0.000000 -0.000000 9.220802 -1.370642 0.000000 -0.000000 -0.000000 0.000001 16.740433 -2.049030 0.000000 -0.000000 -0.000000 0.000000 9.617859 1.685014 0.000000 0.000000 0.000000 0.000002 22.037384 7.501101 0.000000 -0.000000 0.000000 -4.569968 11.014880 -2.160881 0.000008 0.000001 -0.000038 -10.592785 -0.524846 -2.231758 74.548865 63.642883 -50.561893 -27.841499 0.000015 0.000572 48.717663 103.016424 -59.310658 -28.328829 0.000020 0.000011 -0.000320 -0.000045 0.000007 -2.464770 -1.574193 2.682020 -60.443178 -368.467833 -16.945515 -3.215186 -1.872920 1.924397 -43.819813 4.607917 -12.063188 -2.654904 -1.528130 1.512741 -42.659640 9.034155 -11.845707 -2.018834 -1.151999 1.108062 -0.000004 0.000001 0.000002 -9.108391 -0.517952 2.259988 -25.235428 28.012054 6.389907 -3.700122 -0.000049 0.001420 -22.438785 34.667165 7.088543 -2.850121 -0.000039 -0.000366 -23.971565 27.453486 5.937167 -2.772177 -0.000003 -0.000018 -0.000004 -0.000002 -0.000001 -9.532608 -0.000124 0.000109 -25.674521 25.264538 5.845082 -3.700100 -0.000075 0.003857 -23.841588 25.638498 5.503516 -2.950081 -0.000099 -0.001913 -24.990948 25.278301 5.690128 -2.946634 0.000008 -0.000148 -0.000003 0.000000 0.000001 -9.103698 -0.043141 -1.864993 -24.536056 25.665788 5.672797 -3.379332 -0.000128 -0.000930 -27.462739 15.231359 3.744059 -2.889780 -0.000100 0.000517 -34.881807 14.911365 4.715335 -2.638794 -0.000028 0.000936 -0.000002 0.000002 0.000000 -8.076784 -0.486726 -3.806163 -12.207192 29.738121 3.272454 -3.600062 -0.000174 -0.003634 -26.742740 15.298171 3.628310 -2.100040 -0.000116 -0.005610 -30.550914 14.634215 3.990469 -2.115765 -0.000025 -0.003674 -0.000002 0.000000 -0.000005 4.570446 11.014691 -2.160851 -0.000018 0.000010 -0.000021 10.592498 -0.524546 -2.232370 49.148754 -63.721266 31.730959 27.841814 -0.000043 -0.000131 193.107698 -73.171564 197.596594 28.328831 -0.000029 0.000016 0.000019 -0.000089 0.000000 2.465864 -1.576072 2.681868 -236.027241 15.443478 211.911373 3.217663 -1.872061 1.916576 342.957267 139.391552 -396.816505 2.656001 -1.528793 1.514636 189.883630 33.732149 -257.376117 2.020894 -1.154065 1.115140 -0.000002 0.000002 0.000004 9.109356 -0.518003 2.259922 171.603517 -17.178950 128.084065 3.699914 -0.000056 -0.000250 177.305304 -16.469693 161.648011 2.849792 0.000021 0.000435 2.631225 -165.988077 21.163679 2.774885 -0.000060 -0.000028 -0.000002 -0.000002 0.000001 9.533528 0.000286 -0.000004 137.453281 -19.923566 48.538592 3.700041 0.000134 -0.000371 65.355136 -5.148395 3.302102 2.949991 0.000022 -0.000188 33.830149 6.137746 -1.867577 2.952881 -0.000012 0.000061 0.000001 0.000001 0.000003 9.104643 -0.042761 -1.865139 130.531554 -19.210691 40.347003 3.149961 0.000162 -0.000139 420.087616 11.899731 -6.898290 2.949935 0.000036 -0.000115 21.631197 26.982307 -5.248635 2.644324 -0.000001 0.000051 0.000002 -0.000001 0.000000 8.077894 -0.486598 -3.806334 134.279866 -14.647769 35.285461 3.599911 0.000207 0.014517 72.783001 14.260593 -10.311387 2.099948 0.000031 0.007566 390.065109 26.168811 -7.141357 2.125497 0.000001 0.007514 0.000001 0.000003 -0.000001 -8.207786 -6.751667 -1.599560 -0.077001 -0.000003 0.000080 -0.000002 -44.370110 0.345938 0.153719 -0.000000 -0.000000 0.000000 -44.423679 -3.043532 -0.076700 0.000000 -0.000002 -0.000006 -8.728667 10.710559 -0.000009 -0.000000 -0.000000 -0.000001 -0.000679 9.278123 0.000000 -0.000000 -0.000000 8.207792 -6.751710 -1.599556 -0.074518 -0.000003 0.000081 -0.000002 -44.370014 0.346960 0.148822 0.000002 0.000000 -0.000001 -44.423664 -3.044403 -0.074314 0.000000 -0.000002 -0.000004 -8.728671 10.710558 0.000007 -0.000000 -0.000000 0.000000 -0.000680 9.278137 -0.000000 0.000000 -0.000001 
